<svg width="75.2" height="75.2" viewBox="0 0 75.2 75.2" xmlns="http://www.w3.org/2000/svg" xmlns:xlink="http://www.w3.org/1999/xlink" overflow="hidden"><defs></defs><g><path d="M61.6 38 62.4 36.1 63.4 38 65.4 38.2 64 39.7 64.3 41.7 62.5 40.8 60.7 41.8 61 39.7 59.5 38.3Z" stroke="#FFFFFF" stroke-miterlimit="10" fill="none"/><g><path d="M37.6 1C57.8 1 74.2 17.4 74.2 37.6 74.2 57.8 57.7 74.2 37.6 74.2 17.5 74.2 1 57.7 1 37.6 1 17.5 17.4 1 37.6 1M37.6 0C16.8 0 0 16.8 0 37.6 0 58.4 16.8 75.2 37.6 75.2 58.4 75.2 75.2 58.4 75.2 37.6 75.2 16.8 58.3 0 37.6 0L37.6 0Z" fill="#FFFFFF"/></g><path d="M11.7 38.3 12.6 36.5 13.5 38.3 15.5 38.6 14.1 40 14.5 42 12.7 41.1 10.9 42.1 11.2 40.1 9.7 38.6Z" stroke="#FFFFFF" stroke-miterlimit="10" fill="none"/><path d="M18.9 32.7 19.7 30.8 20.7 32.7 22.7 32.9 21.3 34.4 21.6 36.4 19.8 35.5 18 36.4 18.3 34.4 16.8 33Z" stroke="#FFFFFF" stroke-miterlimit="10" fill="none"/><path d="M54.2 32.4 55.1 30.6 56.1 32.4 58.1 32.7 56.6 34.1 57 36.1 55.2 35.2 53.4 36.2 53.7 34.2 52.2 32.8Z" stroke="#FFFFFF" stroke-miterlimit="10" fill="none"/><path d="M35.6 23.2 37.4 19.4 39.3 23.1 43.5 23.6 40.5 26.6 41.3 30.7 37.5 28.9 33.9 30.9 34.5 26.7 31.4 23.8Z" stroke="#FFFFFF" stroke-miterlimit="10" fill="none"/><g><circle cx="20.1" cy="42.2" r="3.3" stroke="#FFFFFF" stroke-miterlimit="10" fill="none"/><path d="M26.6 52.6 26.6 47C25.9 46.2 24.8 45.8 23.7 45.8L16.7 45.8C14.5 45.8 12.6 47.6 12.6 49.9L12.6 52.7C12.6 52.9 12.8 53.1 13 53.1L27.4 53.1C27.4 53.1 27.5 53.1 27.5 53.1L27 53.1C26.8 53 26.6 52.8 26.6 52.6Z" stroke="#FFFFFF" stroke-miterlimit="10" fill="none"/><circle cx="54.8" cy="42.2" r="3.3" stroke="#FFFFFF" stroke-miterlimit="10" fill="none"/><path d="M58.4 45.8 51.4 45.8C50.3 45.8 49.3 46.2 48.6 46.9L48.6 52.6C48.6 52.8 48.4 53 48.2 53L47.6 53C47.6 53 47.7 53 47.7 53L62.1 53C62.3 53 62.5 52.8 62.5 52.6L62.5 49.8C62.5 47.6 60.7 45.8 58.4 45.8Z" stroke="#FFFFFF" stroke-miterlimit="10" fill="none"/><circle cx="37.5" cy="37.3" r="4.7" stroke="#FFFFFF" stroke-miterlimit="10" fill="none"/><path d="M47.3 52.6 47.3 49.8C47.3 48.6 47.8 47.6 48.6 46.9L48.6 46.6C48.6 44.4 46.8 42.6 44.6 42.6L30.7 42.6C28.5 42.6 26.6 44.4 26.6 46.7L26.6 47C27.3 47.7 27.7 48.7 27.7 49.8L27.7 52.6C27.7 52.8 27.6 52.9 27.4 53L47.5 53C47.4 52.9 47.3 52.8 47.3 52.6Z" stroke="#FFFFFF" stroke-miterlimit="10" fill="none"/></g></g></svg>